<svg xmlns="http://www.w3.org/2000/svg" width="108.014" height="77.641" viewBox="0 0 108.014 77.641">
  <g id="graduation-hat" transform="translate(1489 963.019)">
    <path id="Path_1" data-name="Path 1" d="M105.985,94.2,55.349,72.259a3.376,3.376,0,0,0-2.685,0L2.029,94.2a3.378,3.378,0,0,0,0,6.195l18.221,7.9v21.076c0,11.357,14.828,20.254,33.757,20.254s33.757-8.9,33.757-20.254V108.291l3.376-1.463V142.87a3.376,3.376,0,1,0,6.751,0V103.9l8.094-3.507A3.378,3.378,0,0,0,105.985,94.2ZM54.007,79.035,96.152,97.3,92.81,98.747l-38.384-4.8a3.376,3.376,0,0,0-.837,6.7l27.035,3.38L54.007,115.561,11.862,97.3Zm27.006,50.332c0,3.181-2.61,6.455-7.162,8.984-10.84,6.022-28.815,6.04-39.687,0-4.552-2.529-7.162-5.8-7.162-8.984v-18.15l25.663,11.121a3.376,3.376,0,0,0,2.685,0l25.663-11.121Z" transform="translate(-1489 -1035)" fill="#707070"/>
  </g>
</svg>
