<svg id="Page-1" xmlns="http://www.w3.org/2000/svg" width="116.975" height="155.161" viewBox="0 0 116.975 155.161">
  <g id="_017---Veterinarian" data-name="017---Veterinarian">
    <path id="Shape" d="M44.286,91.028c-.438,3.595-1.711,9.542-5.443,12.576l-19.512,4.6c-8.738,2.076-15.357,9.946-16.552,19.682L.19,149.3a5.525,5.525,0,0,0,1.119,4.086,4.539,4.539,0,0,0,3.533,1.771H112.415a4.537,4.537,0,0,0,3.543-1.765,5.525,5.525,0,0,0,1.124-4.092l-2.6-21.42c-1.2-9.737-7.815-17.607-16.555-19.682l-19.515-4.593c-3.765-3.064-5.036-9.108-5.455-12.568C80.1,85.659,84.142,76.319,86.4,66.929c6.612-1.112,9.883-6.072,9.883-15.208a16,16,0,0,0-1.44-7.22A36.964,36.964,0,0,0,96.3,35.483a5.255,5.255,0,0,0,2.33-4.451V25.86A5.054,5.054,0,0,0,94.7,20.773,29.776,29.776,0,0,0,88.53,8.516C78.242-2.793,59.57-.259,46.392,2.638,36.219,4.867,32.184.9,32.038.758A2.236,2.236,0,0,0,30.179.009a2.315,2.315,0,0,0-1.721,1.075A48.112,48.112,0,0,0,21.98,20.926a5.133,5.133,0,0,0-3.356,4.934v5.172a5.164,5.164,0,0,0,3.139,4.854,41.479,41.479,0,0,0,1.278,7.528,14.433,14.433,0,0,0-2.064,8.306c0,9.136,3.264,14.1,9.883,15.208,2.252,9.387,6.288,18.72,13.425,24.1ZM7.44,128.569c.93-7.574,6.079-13.7,12.877-15.309L39.25,108.8l17.025,14.034v27.153H4.842Zm102.377,0,2.6,21.42H60.982V122.836L78.007,108.8l18.934,4.466c6.8,1.612,11.944,7.73,12.877,15.3Zm-36.088-22.7-15.1,12.444-15.1-12.447a26.075,26.075,0,0,0,5.128-12.234,25.23,25.23,0,0,0,19.936,0A26.1,26.1,0,0,0,73.729,105.867Zm-15.1-15.356c-23.911,0-25.866-37.262-25.885-48.969a44.221,44.221,0,0,1,1.09-5.338H58.69a11.04,11.04,0,0,0,18.7,0h6.031a44.62,44.62,0,0,1,1.09,5.34c-.019,11.71-1.977,48.966-25.885,48.966ZM27.19,40.525a38.564,38.564,0,0,1-.682-4.321h2.44c-.447,1.9-.706,3.419-.809,4.223a7.53,7.53,0,0,0-.948.1ZM23.331,25.86h33.18a14.185,14.185,0,0,0,0,5.172H23.331Zm37.651,2.586c0-4.285,3.161-7.758,7.06-7.758s7.06,3.473,7.06,7.758S71.94,36.2,68.041,36.2,60.982,32.731,60.982,28.446Zm18.59-2.586H93.926v5.172H79.572A14.185,14.185,0,0,0,79.572,25.86Zm9.549,14.567c-.115-.8-.362-2.327-.81-4.223h3.262a33.241,33.241,0,0,1-.652,4.613,7.153,7.153,0,0,0-1.8-.39Zm-1.577,20.98a117.4,117.4,0,0,0,1.6-15.775,2.164,2.164,0,0,1,1,.471,8.113,8.113,0,0,1,1.426,5.617c0,6.364-1.739,8.751-4.031,9.687ZM31.082,6.178A22.277,22.277,0,0,0,47.319,7.706c12.1-2.658,29.179-5.084,37.886,4.466a23.361,23.361,0,0,1,4.52,8.516H77.393a11.04,11.04,0,0,0-18.7,0h-31.9a44.767,44.767,0,0,1,4.295-14.51Zm-5.4,45.542a8.113,8.113,0,0,1,1.428-5.63,2.158,2.158,0,0,1,1-.468,117.36,117.36,0,0,0,1.6,15.775C27.423,60.471,25.684,58.085,25.684,51.72Z" transform="translate(-0.148 0)" fill="#999"/>
    <circle id="Oval" cx="5.955" cy="5.955" r="5.955" transform="translate(21.695 116.082)" fill="#00cafe"/>
    <circle id="Oval-2" data-name="Oval" cx="5.955" cy="5.955" r="5.955" transform="translate(19.081 89.653)" fill="#00cafe"/>
    <circle id="Oval-3" data-name="Oval" cx="5.955" cy="5.955" r="5.955" transform="translate(30.504 116.082)" fill="#00cafe"/>
    <circle id="Oval-4" data-name="Oval" cx="5.955" cy="5.955" r="5.955" transform="translate(34.908 89.653)" fill="#00cafe"/>
  </g>
</svg>
