<svg id="Group_7" data-name="Group 7" xmlns="http://www.w3.org/2000/svg" width="140.94" height="143.788" viewBox="0 0 140.94 143.788">
  <g id="Page-1">
    <g id="_001---Vet" data-name="001---Vet" transform="translate(0 0)">
      <path id="Shape" d="M0,76.687A21.386,21.386,0,0,0,21.145,98.255H44.64V122.22a21.386,21.386,0,0,0,21.145,21.568h9.4A21.386,21.386,0,0,0,96.328,122.22V108.107a9.605,9.605,0,0,1,2.349-.266,8.977,8.977,0,0,1,5.815,1.991,13.68,13.68,0,0,0,8.5,2.8,10.8,10.8,0,0,0,10.479-6.971A18.143,18.143,0,0,0,119.29,86.97a35.2,35.2,0,0,1-5-6.95C111.179,74.846,107.97,69.5,98.678,69.5s-12.5,5.349-15.608,10.52a35.2,35.2,0,0,1-5,6.95,18.143,18.143,0,0,0-4.177,18.692,10.8,10.8,0,0,0,10.479,6.974,13.027,13.027,0,0,0,7.262-2.006V122.22A16.632,16.632,0,0,1,75.183,139h-9.4A16.632,16.632,0,0,1,49.339,122.22V98.255a4.747,4.747,0,0,0-4.7-4.793H21.145A16.632,16.632,0,0,1,4.7,76.687V67.1A16.632,16.632,0,0,1,21.145,50.326H44.64a4.747,4.747,0,0,0,4.7-4.793V21.568A16.632,16.632,0,0,1,65.785,4.793h9.4A16.632,16.632,0,0,1,91.629,21.568V39.916a9.943,9.943,0,0,0-17.09,2.229,18.636,18.636,0,0,0-1.673,11.084,18.476,18.476,0,0,0,4.666,10.156,10.8,10.8,0,0,0,7.791,3.657,9.415,9.415,0,0,0,1.344-.1A10.6,10.6,0,0,0,94.451,60.9a17.818,17.818,0,0,0,1.877-8.182V21.568A21.386,21.386,0,0,0,75.183,0h-9.4A21.386,21.386,0,0,0,44.64,21.568V45.533H21.145A21.386,21.386,0,0,0,0,67.1Zm84.367,31.154a6.123,6.123,0,0,1-6.13-4,13.487,13.487,0,0,1,3.141-13.468,39.468,39.468,0,0,0,5.7-7.848c2.97-4.958,4.936-8.232,11.595-8.232s8.625,3.274,11.6,8.232a39.468,39.468,0,0,0,5.7,7.848,13.487,13.487,0,0,1,3.137,13.468,6.123,6.123,0,0,1-6.13,4,9.109,9.109,0,0,1-5.918-2.015,14.068,14.068,0,0,0-16.785,0A9.109,9.109,0,0,1,84.367,107.841Zm5.928-49.175A5.428,5.428,0,0,1,86,62.2a5.356,5.356,0,0,1-5.1-2.16,13.628,13.628,0,0,1-3.383-7.5,13.718,13.718,0,0,1,1.175-8.165,6.041,6.041,0,0,1,4.295-3.532c3.792-.549,7.666,3.866,8.482,9.651a16.021,16.021,0,0,1,.157,2.181v.041a12.885,12.885,0,0,1-1.327,5.943Z" transform="translate(0 0)" fill="#00cafe"/>
      <path id="Shape-2" data-name="Shape" d="M436.89,456.964c-4.664,2.305-6.158,9.018-3.334,14.966a12.021,12.021,0,0,0,10.19,7.381,7.592,7.592,0,0,0,3.393-.784c4.664-2.305,6.158-9.02,3.332-14.964S441.554,454.659,436.89,456.964Zm8.2,17.255c-2.3,1.136-5.639-.872-7.3-4.378s-1.137-7.429,1.154-8.56a3.12,3.12,0,0,1,1.41-.319,7.477,7.477,0,0,1,5.9,4.7c1.659,3.5,1.132,7.434-1.161,8.558Z" transform="translate(-375.724 -395.447)" fill="#a5a5a5"/>
      <path id="Shape-3" data-name="Shape" d="M783.533,301.409a9.419,9.419,0,0,0,1.344.1,10.808,10.808,0,0,0,7.791-3.657,19.556,19.556,0,0,0,2.993-21.24,10.6,10.6,0,0,0-7.784-6.039c-6.4-.939-12.6,5.212-13.8,13.715a18.672,18.672,0,0,0,1.673,11.084A10.6,10.6,0,0,0,783.533,301.409Zm-4.8-16.442c.771-5.457,4.267-9.7,7.836-9.7a4.506,4.506,0,0,1,.646.048,6.04,6.04,0,0,1,4.295,3.532,14.726,14.726,0,0,1-2.209,15.661,5.355,5.355,0,0,1-5.1,2.16,5.428,5.428,0,0,1-4.3-3.538A13.736,13.736,0,0,1,778.728,284.967Z" transform="translate(-672.845 -234.466)" fill="#a5a5a5"/>
      <path id="Shape-4" data-name="Shape" d="M933.1,478.528a7.592,7.592,0,0,0,3.393.784,12.024,12.024,0,0,0,10.19-7.384c2.819-5.946,1.33-12.658-3.334-14.964s-10.754.657-13.58,6.6S928.443,476.222,933.1,478.528Zm6.813-17.568a3.119,3.119,0,0,1,1.41.319c2.291,1.131,2.819,5.054,1.154,8.56s-5.014,5.512-7.3,4.378-2.82-5.054-1.154-8.56A7.477,7.477,0,0,1,939.911,460.959Z" transform="translate(-807.165 -395.447)" fill="#a5a5a5"/>
      <path id="Shape-5" data-name="Shape" d="M76.7,425.982a7.12,7.12,0,0,1,7.048-7.189,2.4,2.4,0,0,0,0-4.793A11.881,11.881,0,0,0,72,425.982a2.35,2.35,0,1,0,4.7,0Z" transform="translate(-62.602 -358.881)" fill="#00cafe"/>
      <path id="Shape-6" data-name="Shape" d="M220.7,418.793a2.4,2.4,0,0,0,0-4.793h-2.349a2.4,2.4,0,0,0,0,4.793Z" transform="translate(-187.806 -358.881)" fill="#00cafe"/>
    </g>
  </g>
</svg>
