<svg id="veterinary" xmlns="http://www.w3.org/2000/svg" width="144.024" height="144" viewBox="0 0 144.024 144">
  <path id="Path_5" data-name="Path 5" d="M335.021,473.7a3.115,3.115,0,0,0-4.04,1.757l-3.851,9.784c-1.416,3.595,4.267,6.17,5.8,2.282l3.851-9.784A3.114,3.114,0,0,0,335.021,473.7Z" transform="translate(-237.132 -345.468)" fill="#00cafe"/>
  <path id="Path_6" data-name="Path 6" d="M142.957,97.6a5.3,5.3,0,0,0-4.277-2.142h-8.913a2.286,2.286,0,0,1-1.827-.918l-7.172-9.646A15.541,15.541,0,0,0,110.2,78.768a5.94,5.94,0,0,0-6.76-4.242L87.722,77.534A5.9,5.9,0,0,0,83.647,86l2.332,4.428-12.26,15.96c-4.615-3.723-10.662-6.11-15.9-8.834a9.075,9.075,0,0,1-4.9-8.076V86.64A46.788,46.788,0,0,0,60.9,84.157l.028-.012A15.024,15.024,0,0,0,70.25,70.211V59.977h2.025a6.3,6.3,0,0,0,3.976-11.056V32.861A32.819,32.819,0,0,0,22.555,7.54c-2.036,1.681.557,5.011,2.686,3.254A28.6,28.6,0,0,1,72.033,32.861V47.488H70.25V32.663a9.816,9.816,0,0,0-9.805-9.805,10.3,10.3,0,0,0-7.857,2.91c-9.056,9.056-21.205,15.85-34.252,16.114a2.11,2.11,0,0,0-2.067,2.109v3.5H14.835V32.862a28.474,28.474,0,0,1,4.712-15.733c1.454-2.2-2-4.628-3.522-2.324a32.679,32.679,0,0,0-5.41,18.057V48.655C5.805,52.1,8.306,59.978,14.243,59.978h2.025V70.217a15.026,15.026,0,0,0,9.318,13.931,46.684,46.684,0,0,0,9.141,2.724v2.61a9.075,9.075,0,0,1-4.9,8.076l-10.678,5.558A35.463,35.463,0,0,0,0,134.671v7.283c0,2.64,4.219,2.76,4.219,0v-7.283A31.256,31.256,0,0,1,21.1,106.857l7.51-3.909L43.04,117.38a2.109,2.109,0,0,0,2.983,0l13.949-13.949c3.7,1.928,7.925,3.667,11.177,6.307L47.39,140.669c-1.622,2.112,1.705,4.707,3.346,2.57l37.408-48.7,4.324,8.209a5.9,5.9,0,0,0,10.7-.8l6.624-18.979a11.3,11.3,0,0,1,7.6,4.44l7.172,9.646c1.781,2.4,4.551,2.748,7.3,2.62.58,3.2,2.416,6.81,5.4,8.446a13.169,13.169,0,0,1-11.226,6.381H107.034a6.459,6.459,0,0,0-6.044,4.116l-2.642,6.711c-.959,2.435,2.89,4.178,3.926,1.545l2.642-6.711a2.263,2.263,0,0,1,2.118-1.442h18.993a17.4,17.4,0,0,0,16.595-12.409l1.181-4.006a5.294,5.294,0,0,0-.846-4.708ZM72.276,51.707c2.534,0,2.65,4.051,0,4.051H70.251V51.707ZM14.244,55.758c-2.534,0-2.65-4.051,0-4.051h2.025v4.051Zm6.245,14.458v-24.2c13.36-.871,25.763-7.94,35.084-17.261,3.494-3.494,10.459-1.343,10.459,3.912V70.212a10.818,10.818,0,0,1-6.716,10.033l-.028.012a41.788,41.788,0,0,1-32.09-.009,10.82,10.82,0,0,1-6.709-10.031ZM44.532,112.9,32.513,100.885c4.856-2.927,6.572-8.02,6.435-13.414a45.81,45.81,0,0,0,9.757-.123c-.144,5.826,1.858,11.274,7.343,14.04Zm61.541-32.1-6.894,19.754a1.632,1.632,0,0,1-2.978.222l-8.82-16.745a1.628,1.628,0,0,1,1.134-2.358L104.23,78.67a1.634,1.634,0,0,1,1.843,2.136ZM138.68,99.677a1.121,1.121,0,0,1,1.076,1.439l-.9,3.043a8.318,8.318,0,0,1-2.685-4.482Z" transform="translate(0 -0.043)" fill="#828282"/>
  <path id="Path_7" data-name="Path 7" d="M91.82,457.3H84.472v-7.348c0-3.9-6.23-4.076-6.23,0V457.3H70.894c-3.9,0-4.076,6.23,0,6.23h7.347v7.347c0,3.9,6.23,4.076,6.23,0v-7.347H91.82C95.718,463.532,95.9,457.3,91.82,457.3Z" transform="translate(-39.7 -329.961)" fill="#00cafe"/>
</svg>
